<svg width="60" height="60" fill="none" xmlns="http://www.w3.org/2000/svg"><path d="M30 30.078h30L30 60V30.078z" fill="url(#paint0_linear_1_473)"/><path d="M30 30.078V.157L0 30.078h30z" fill="url(#paint1_linear_1_473)"/><path d="M30 30.078V60L0 30.078h30z" fill="url(#paint2_linear_1_473)"/><path d="M30 30.078h30L30 .157v29.921z" fill="url(#paint3_linear_1_473)"/><path transform="scale(-1.0013 .9987) rotate(-45 13.885 69.307)" fill="url(#paint4_linear_1_473)" d="M0 0h21.186v21.186H0z"/><path fill-rule="evenodd" clip-rule="evenodd" d="M45.443 30.078L30 14.675 14.556 30.078 30 45.482l15.443-15.404zm-.887 0L30 44.597 15.443 30.078 30 15.56l14.556 14.518z" fill="url(#paint5_linear_1_473)"/><path d="M43.842 43.631c8.157-4.222 11.765-10.321 13.647-13.449h2.353l-3.137 3.128-22.59 22.676v-.626c2.385-6.13-1.464-9.8-3.607-10.79l2.823-2.815c-.104 2.137 2.288 6.133 10.51 1.876z" fill="#93E8FF"/><path opacity=".2" fill-rule="evenodd" clip-rule="evenodd" d="M33.467 35.677a19.728 19.728 0 01-13.313 5.14c-8.398 0-15.572-5.222-18.436-12.586L27.296 2.733C34.682 5.587 39.92 12.74 39.92 21.112a19.6 19.6 0 01-5.155 13.271l-1.298 1.294z" fill="#74E4FF"/><path d="M25.488 19.235l4.078-4.066c-8.007 1.228-3.098-9.197.282-14.856l-13.145 12.98-13.02 13.136 12.236-7.506c12.173-7.382 11.399-2.92 9.569.312z" fill="url(#paint6_linear_1_473)"/><g filter="url(#filter0_f_1_473)"><path d="M29.88 8.914l-.346 5.91-5.929.345 5.93.345.345 5.91.346-5.91 5.929-.345-5.929-.345-.346-5.91z" fill="#fff"/></g><path d="M29.88 8.914l-.346 5.91-5.929.345 5.93.345.345 5.91.346-5.91 5.929-.345-5.929-.345-.346-5.91z" fill="#fff"/><defs><linearGradient id="paint0_linear_1_473" x1="31.449" y1="39.253" x2="39.98" y2="49.033" gradientUnits="userSpaceOnUse"><stop stop-color="#65B5FF"/><stop offset="1" stop-color="#64E4FF"/></linearGradient><linearGradient id="paint1_linear_1_473" x1="-8.709" y1="37.689" x2="4.494" y2="-1.084" gradientUnits="userSpaceOnUse"><stop offset=".146" stop-color="#8EECFF"/><stop offset="1" stop-color="#A8EFFF"/></linearGradient><linearGradient id="paint2_linear_1_473" x1="2.363" y1="27.796" x2="12.553" y2="68.707" gradientUnits="userSpaceOnUse"><stop stop-color="#2E3DB0"/><stop offset="1" stop-color="#55C1F2"/></linearGradient><linearGradient id="paint3_linear_1_473" x1="24.579" y1="-.266" x2="61.041" y2="7.808" gradientUnits="userSpaceOnUse"><stop stop-color="#2354C0"/><stop offset="1" stop-color="#A3E9FF"/></linearGradient><linearGradient id="paint4_linear_1_473" x1="-4.571" y1="8.643" x2="26.267" y2="7.225" gradientUnits="userSpaceOnUse"><stop offset=".02" stop-color="#2A67C4"/><stop offset=".349" stop-color="#2E3AB0"/><stop offset="1" stop-color="#79E8FF"/></linearGradient><linearGradient id="paint5_linear_1_473" x1="29.881" y1="14.544" x2="29.867" y2="43.163" gradientUnits="userSpaceOnUse"><stop stop-color="#D7F8FF"/><stop offset=".177" stop-color="#9EEDFF"/><stop offset=".432" stop-color="#66E3FF"/><stop offset=".686" stop-color="#fff" stop-opacity="0"/></linearGradient><linearGradient id="paint6_linear_1_473" x1="17.644" y1="16.89" x2="29.878" y2="15.002" gradientUnits="userSpaceOnUse"><stop stop-color="#D3F6FF"/><stop offset=".603" stop-color="#D3F6FF"/><stop offset="1" stop-color="#fff"/></linearGradient><filter id="filter0_f_1_473" x="22.127" y="7.435" width="15.507" height="15.468" filterUnits="userSpaceOnUse" color-interpolation-filters="sRGB"><feFlood flood-opacity="0" result="BackgroundImageFix"/><feBlend in="SourceGraphic" in2="BackgroundImageFix" result="shape"/><feGaussianBlur stdDeviation=".739" result="effect1_foregroundBlur_1_473"/></filter></defs></svg>