<svg width="20" height="20" fill="none" xmlns="http://www.w3.org/2000/svg"><path clip-rule="evenodd" d="M10 1.563a8.438 8.438 0 100 16.875 8.438 8.438 0 000-16.875z" stroke="#2D447D" stroke-width="1.25" stroke-linecap="round" stroke-linejoin="round"/><path clip-rule="evenodd" d="M7.671 13.566L6.24 9.14 10 6.406l3.761 2.735-1.432 4.425H7.67v0z" stroke="#2D447D" stroke-width="1.25" stroke-linecap="round" stroke-linejoin="round"/><path d="M13.226 2.2L10 4.376 6.774 2.201m5.176 16.01l1.604-3.274 3.662-.563m1.194-3.692l-2.57-2.56.552-3.63M10 4.375v2.031m3.761 2.734l2.08-1.018M1.59 10.682l2.57-2.56-.552-3.63M6.239 9.14l-2.08-1.018m8.17 5.444l1.224 1.37M8.05 18.211l-1.604-3.274-3.663-.563m4.888-.808l-1.224 1.37" stroke="#2D447D" stroke-width="1.25" stroke-linecap="round" stroke-linejoin="round"/></svg>