<svg width="350" height="56" fill="none" xmlns="http://www.w3.org/2000/svg"><path d="M48.879 5.002C44.806 2.97 39.166 1.407 33.409.625l-1.41 5.236c5.09.665 9.752 1.954 12.963 3.283v16.451c0 12.974-9.595 19.07-19.779 24.032a91.206 91.206 0 01-4.347-2.227l-1.449 5.392c1.684.86 3.25 1.642 4.622 2.306l1.174.547 1.175-.547c8.382-4.025 24.009-11.527 24.009-29.503V5.745l-1.488-.743z" fill="#1ED760"/><path d="M34.544 27.354a7.412 7.412 0 003.094-6.174c-.078-4.064-3.525-7.347-7.715-7.347h-.079l-1.37 5.158h1.057a2.354 2.354 0 012.35 2.345 2.354 2.354 0 01-2.35 2.344h-2.31l-1.372 5.12h3.369l3.76 6.955h6.188l-4.622-8.401z" fill="#1ED760"/><path d="M19.7 28.8h3.212l1.37-5.159H19.7v-4.65h5.875l1.371-5.158H16.45a2.454 2.454 0 00-2.468 2.462v16.96a2.454 2.454 0 002.468 2.461h3.25V28.8z" fill="#11915A"/><path d="M18.29 45.915C11.045 41.46 5.405 35.521 5.405 25.595V9.183c4.582-1.915 12.18-3.751 19.778-3.751 1.332 0 2.664.039 3.956.156L30.55.274C28.748.117 26.946 0 25.183 0 17.037 0 7.52 1.993 1.488 5.002L0 5.744v19.851c0 13.56 8.89 21.14 16.841 25.79l1.45-5.47z" fill="#11915A"/><path d="M302.254 13.358L294.957 30.9l-7.298-17.542a3.036 3.036 0 00-2.808-1.859h-4.909l11.025 25.266a3.96 3.96 0 003.622 2.382h.735a3.96 3.96 0 003.622-2.382l11.025-25.266h-4.909a2.958 2.958 0 00-2.808 1.86zM158.568 11.29h-.735a3.961 3.961 0 00-3.622 2.383l-11.024 25.265h4.908a3.038 3.038 0 002.809-1.859l7.297-17.541 7.297 17.541a3.038 3.038 0 002.809 1.86h4.908l-11.024-25.266c-.604-1.466-2.048-2.383-3.623-2.383zm-40.632 16.626h11.811c.552 0 1.024-.445 1.024-1.021v-3.613c0-.55-.446-1.021-1.024-1.021h-11.811v-5.184h14.568v-2.592a3.043 3.043 0 00-3.045-3.037h-14.752a3.043 3.043 0 00-3.045 3.037v21.39a3.043 3.043 0 003.045 3.037h14.962a3.043 3.043 0 003.045-3.037v-2.592h-14.752v-5.367h-.026zm137.306 0h11.812c.551 0 1.024-.445 1.024-1.021v-3.613c0-.55-.446-1.021-1.024-1.021h-11.812v-5.184h14.568v-2.592a3.043 3.043 0 00-3.045-3.037h-14.751a3.043 3.043 0 00-3.045 3.037v21.39a3.043 3.043 0 003.045 3.037h14.961a3.043 3.043 0 003.045-3.037v-2.592h-14.751v-5.367h-.027zm-65.018-16.442h-3.281a3.043 3.043 0 00-3.045 3.037v21.39a3.043 3.043 0 003.045 3.037h13.807a3.043 3.043 0 003.045-3.037v-2.723h-13.544V11.474h-.027zm43.494 0h-14.961a3.043 3.043 0 00-3.045 3.037v21.39a3.043 3.043 0 003.045 3.037h3.281V28.832h10.945c.552 0 1.024-.445 1.024-1.02v-3.719c0-.55-.446-1.02-1.024-1.02h-10.945v-5.865h14.725v-2.723c0-1.65-1.365-3.011-3.045-3.011zm-134.892 9.19v-.079c0-5.707-3.884-9.111-10.42-9.111H78.85a3.043 3.043 0 00-3.045 3.037v21.39a3.043 3.043 0 003.045 3.037h3.255v-21.73h5.775c2.913 0 4.54 1.309 4.54 3.718v.078c0 2.278-1.705 3.665-4.409 3.665h-1.706c-.551 0-1.024.446-1.024 1.021v3.587c0 .55.446 1.021 1.024 1.021h.315c1.207 0 2.599.289 3.622 2.226l3.386 6.44h6.772l-5.8-10.498c2.362-1.414 4.225-3.77 4.225-7.802zm239.651 7.776c2.362-1.362 4.2-3.718 4.2-7.75v-.078c0-5.708-3.885-9.112-10.421-9.112h-9.555a3.043 3.043 0 00-3.044 3.037v21.39a3.043 3.043 0 003.044 3.038h3.282v-21.73h5.774c2.914 0 4.541 1.308 4.541 3.717v.078c0 2.278-1.706 3.666-4.41 3.666h-1.706c-.551 0-1.023.445-1.023 1.021v3.587c0 .55.446 1.02 1.023 1.02h.315c1.208 0 2.599.289 3.623 2.226l3.386 6.441h6.772l-5.801-10.551zm10.972-16.626c.367.367.551.812.551 1.361 0 .55-.184.995-.551 1.336-.368.366-.814.523-1.339.523s-.971-.183-1.339-.523a1.817 1.817 0 01-.551-1.336c0-.55.184-.995.551-1.361.368-.367.814-.524 1.339-.524s.971.184 1.339.524zm-.289 2.435c.289-.288.42-.629.42-1.047 0-.42-.131-.786-.42-1.074a1.43 1.43 0 00-1.05-.445c-.42 0-.761.157-1.05.445-.289.288-.42.655-.42 1.074 0 .418.158.785.446 1.047.289.288.63.419 1.05.419.394 0 .735-.157 1.024-.42zm-.63-.838l.473.576h-.499l-.446-.524h-.237v.524h-.446v-1.702h.84c.21 0 .394.053.499.157.131.105.184.236.184.42.026.261-.105.444-.368.55zm-.315-.34c.184 0 .289-.079.289-.236 0-.157-.105-.21-.289-.21h-.394v.446h.394z" fill="#FFF"/></svg>