<svg width="350" height="56" viewBox="0 0 350 56" fill="none" xmlns="http://www.w3.org/2000/svg">
<path d="M48.8787 5.0018C44.8055 2.96981 39.1656 1.40675 33.4083 0.625214L31.9983 5.86149C37.0899 6.52579 41.7506 7.81532 44.9622 9.14392V25.5952C44.9622 38.5686 35.3666 44.6646 25.1835 49.6273C23.7344 48.924 22.2461 48.1815 20.8361 47.4L19.387 52.7925C21.0711 53.6522 22.6377 54.4338 24.0085 55.0981L25.1835 55.6451L26.3585 55.0981C34.7399 51.0732 50.367 43.5705 50.367 25.5952V5.74426L48.8787 5.0018Z" fill="#1ED760"/>
<path d="M34.5441 27.3537C36.5415 25.9078 37.6773 23.6414 37.6382 21.1795C37.5599 17.1156 34.1133 13.8331 29.9226 13.8331H29.8442L28.4734 18.9912H29.5309C30.8234 18.9912 31.8808 20.0463 31.8808 21.3358C31.8808 22.6254 30.8234 23.6804 29.5309 23.6804H27.2201L25.8493 28.7995H29.2176L32.9775 35.7551H39.1656L34.5441 27.3537Z" fill="#1ED760"/>
<path d="M19.7003 28.7995H22.9119L24.2827 23.6414H19.7003V18.9912H25.5752L26.946 13.8331H16.4496C15.0788 13.8331 13.9821 14.9273 13.9821 16.295V33.2542C13.9821 34.6219 15.0788 35.7161 16.4496 35.7161H19.7003V28.7995Z" fill="#11915A"/>
<path d="M18.2904 45.9151C11.0447 41.4603 5.40486 35.5207 5.40486 25.5952V9.18301C9.98724 7.26826 17.5854 5.43166 25.1835 5.43166C26.5151 5.43166 27.8468 5.47073 29.1392 5.58796L30.5492 0.273537C28.7476 0.11723 26.946 0 25.1835 0C17.0371 0 7.5198 1.99291 1.48829 5.00181L0 5.74427V25.5952C0 39.1548 8.8906 46.7357 16.8412 51.3858L18.2904 45.9151Z" fill="#11915A"/>
<path d="M302.254 13.3582L294.957 30.8999L287.659 13.3582C287.187 12.2324 286.085 11.4994 284.851 11.4994H279.942L290.967 36.7646C291.597 38.2046 293.014 39.1471 294.589 39.1471H295.324C296.899 39.1471 298.316 38.2046 298.946 36.7646L309.971 11.4994H305.062C303.829 11.4732 302.726 12.2062 302.254 13.3582Z" fill="#FFFFFF"/>
<path d="M158.568 11.2904H157.833C156.259 11.2904 154.841 12.2329 154.211 13.6729L143.187 38.9381H148.095C149.329 38.9381 150.431 38.205 150.904 37.0792L158.201 19.5376L165.498 37.0792C165.971 38.205 167.073 38.9381 168.307 38.9381H173.215L162.191 13.6729C161.587 12.2067 160.143 11.2904 158.568 11.2904Z" fill="#FFFFFF"/>
<path d="M117.936 27.9158H129.747C130.299 27.9158 130.771 27.4707 130.771 26.8947V23.2816C130.771 22.7318 130.325 22.2606 129.747 22.2606H117.936V17.0766H132.504V14.4846C132.504 12.809 131.139 11.4476 129.459 11.4476H114.707C113.027 11.4476 111.662 12.809 111.662 14.4846V35.875C111.662 37.5506 113.027 38.912 114.707 38.912H129.669C131.349 38.912 132.714 37.5506 132.714 35.875V33.283H117.962V27.9158H117.936Z" fill="#FFFFFF"/>
<path d="M255.242 27.9158H267.054C267.605 27.9158 268.078 27.4707 268.078 26.8947V23.2816C268.078 22.7318 267.632 22.2606 267.054 22.2606H255.242V17.0766H269.81V14.4846C269.81 12.809 268.445 11.4476 266.765 11.4476H252.014C250.334 11.4476 248.969 12.809 248.969 14.4846V35.875C248.969 37.5506 250.334 38.912 252.014 38.912H266.975C268.655 38.912 270.02 37.5506 270.02 35.875V33.283H255.269V27.9158H255.242Z" fill="#FFFFFF"/>
<path d="M190.224 11.474H186.943C185.263 11.474 183.898 12.8354 183.898 14.511V35.9013C183.898 37.577 185.263 38.9384 186.943 38.9384H200.75C202.43 38.9384 203.795 37.577 203.795 35.9013V33.1785H190.251V11.474H190.224Z" fill="#FFFFFF"/>
<path d="M233.718 11.474H218.757C217.077 11.474 215.712 12.8354 215.712 14.511V35.9013C215.712 37.577 217.077 38.9384 218.757 38.9384H222.038V28.8323H232.983C233.535 28.8323 234.007 28.3872 234.007 27.8113V24.0935C234.007 23.5437 233.561 23.0724 232.983 23.0724H222.038V17.2077H236.763V14.4848C236.763 12.8354 235.398 11.474 233.718 11.474Z" fill="#FFFFFF"/>
<path d="M98.8265 20.6637V20.5851C98.8265 14.8776 94.9417 11.474 88.4058 11.474H78.8513C77.1714 11.474 75.8064 12.8354 75.8064 14.511V35.9014C75.8064 37.577 77.1714 38.9384 78.8513 38.9384H82.1061V17.2077H87.8808C90.7944 17.2077 92.4218 18.5168 92.4218 20.9255V21.0041C92.4218 23.2819 90.7157 24.6695 88.0121 24.6695H86.3059C85.7547 24.6695 85.2822 25.1146 85.2822 25.6905V29.2774C85.2822 29.8272 85.7284 30.2985 86.3059 30.2985H86.6209C87.8283 30.2985 89.2195 30.5865 90.2432 32.5239L93.6293 38.9646H100.401L94.6005 28.4658C96.9629 27.052 98.8265 24.6957 98.8265 20.6637Z" fill="#FFFFFF"/>
<path d="M338.477 28.4399C340.839 27.0784 342.677 24.7221 342.677 20.6901V20.6116C342.677 14.904 338.792 11.5004 332.256 11.5004H322.701C321.022 11.5004 319.657 12.8619 319.657 14.5375V35.9278C319.657 37.6034 321.022 38.9648 322.701 38.9648H325.983V17.2342H331.757C334.671 17.2342 336.298 18.5433 336.298 20.952V21.0305C336.298 23.3083 334.592 24.6959 331.888 24.6959H330.182C329.631 24.6959 329.159 25.141 329.159 25.717V29.3039C329.159 29.8537 329.605 30.3249 330.182 30.3249H330.497C331.705 30.3249 333.096 30.6129 334.12 32.5504L337.506 38.991H344.278L338.477 28.4399Z" fill="#FFFFFF"/>
<path d="M349.449 11.814C349.816 12.1805 350 12.6256 350 13.1754C350 13.7253 349.816 14.1704 349.449 14.5107C349.081 14.8773 348.635 15.0343 348.11 15.0343C347.585 15.0343 347.139 14.8511 346.771 14.5107C346.404 14.1442 346.22 13.6991 346.22 13.1754C346.22 12.6256 346.404 12.1805 346.771 11.814C347.139 11.4475 347.585 11.2904 348.11 11.2904C348.635 11.2904 349.081 11.4736 349.449 11.814ZM349.16 14.2489C349.449 13.9609 349.58 13.6205 349.58 13.2016C349.58 12.7827 349.449 12.4162 349.16 12.1282C348.871 11.8402 348.53 11.6831 348.11 11.6831C347.69 11.6831 347.349 11.8402 347.06 12.1282C346.771 12.4162 346.64 12.7827 346.64 13.2016C346.64 13.6205 346.798 13.9871 347.086 14.2489C347.375 14.5369 347.716 14.6678 348.136 14.6678C348.53 14.6678 348.871 14.5107 349.16 14.2489ZM348.53 13.4111L349.003 13.9871H348.504L348.058 13.4635H347.821V13.9871H347.375V12.2853H348.215C348.425 12.2853 348.609 12.3376 348.714 12.4424C348.845 12.5471 348.898 12.678 348.898 12.8613C348.924 13.1231 348.793 13.3064 348.53 13.4111ZM348.215 13.0707C348.399 13.0707 348.504 12.9922 348.504 12.8351C348.504 12.678 348.399 12.6256 348.215 12.6256H347.821V13.0707H348.215Z" fill="#FFFFFF"/>
</svg>
