<svg width="60" height="60" viewBox="0 0 60 60" fill="none" xmlns="http://www.w3.org/2000/svg">
<path d="M29.9996 30.0784H59.9996L29.9996 60V30.0784Z" fill="url(#paint0_linear_1_473)"/>
<path d="M29.9997 30.0785V0.156982L-0.000259063 30.0785H29.9997Z" fill="url(#paint1_linear_1_473)"/>
<path d="M29.9997 30.0784V59.9999L-0.000261764 30.0784H29.9997Z" fill="url(#paint2_linear_1_473)"/>
<path d="M29.9996 30.0784H59.9996L29.9996 0.156908V30.0784Z" fill="url(#paint3_linear_1_473)"/>
<rect width="21.1855" height="21.1855" transform="matrix(-0.708032 -0.706181 -0.708032 0.706181 44.9997 30.0784)" fill="url(#paint4_linear_1_473)"/>
<path fill-rule="evenodd" clip-rule="evenodd" d="M45.4433 30.0784L29.9997 14.6752L14.5562 30.0784L29.9997 45.4816L45.4433 30.0784ZM44.5561 30.0784L29.9997 44.5968L15.4433 30.0784L29.9997 15.5601L44.5561 30.0784Z" fill="url(#paint5_linear_1_473)"/>
<path d="M43.8415 43.6314C51.9988 39.409 55.6068 33.31 57.4892 30.1823H59.8422L56.7048 33.31L34.1156 55.9858V55.3603C36.5001 49.23 32.6515 45.5602 30.5077 44.5697L33.3313 41.7548C33.2267 43.8921 35.6192 47.8875 43.8415 43.6314Z" fill="#93E8FF"/>
<path opacity="0.2" fill-rule="evenodd" clip-rule="evenodd" d="M33.4667 35.6772C29.954 38.8698 25.2822 40.8165 20.1543 40.8165C11.7563 40.8165 4.58154 35.5953 1.71823 28.2314L27.2957 2.73291C34.6824 5.58738 39.9198 12.7399 39.9198 21.112C39.9198 26.2241 37.967 30.8815 34.7646 34.3833L33.4667 35.6772Z" fill="#74E4FF"/>
<path d="M25.4878 19.2354L29.5664 15.1693C21.5592 16.3974 26.4677 5.97221 29.8484 0.31277L16.7032 13.2927L3.68299 26.4291L15.9188 18.9226C28.0919 11.5412 27.318 16.0034 25.4878 19.2354Z" fill="url(#paint6_linear_1_473)"/>
<g filter="url(#filter0_f_1_473)">
<path d="M29.8802 8.91394L29.5343 14.8245L23.6054 15.1693L29.5343 15.5142L29.8802 21.4247L30.2261 15.5142L36.155 15.1693L30.2261 14.8245L29.8802 8.91394Z" fill="white"/>
</g>
<path d="M29.8802 8.91394L29.5343 14.8245L23.6054 15.1693L29.5343 15.5142L29.8802 21.4247L30.2261 15.5142L36.155 15.1693L30.2261 14.8245L29.8802 8.91394Z" fill="white"/>
<defs>
<filter id="filter0_f_1_473" x="22.1268" y="7.43534" width="15.5068" height="15.468" filterUnits="userSpaceOnUse" color-interpolation-filters="sRGB">
<feFlood flood-opacity="0" result="BackgroundImageFix"/>
<feBlend mode="normal" in="SourceGraphic" in2="BackgroundImageFix" result="shape"/>
<feGaussianBlur stdDeviation="0.7393" result="effect1_foregroundBlur_1_473"/>
</filter>
<linearGradient id="paint0_linear_1_473" x1="31.4494" y1="39.2531" x2="39.9798" y2="49.0333" gradientUnits="userSpaceOnUse">
<stop stop-color="#65B5FF"/>
<stop offset="1" stop-color="#64E4FF"/>
</linearGradient>
<linearGradient id="paint1_linear_1_473" x1="-8.7092" y1="37.6892" x2="4.49385" y2="-1.08431" gradientUnits="userSpaceOnUse">
<stop offset="0.14601" stop-color="#8EECFF"/>
<stop offset="1" stop-color="#A8EFFF"/>
</linearGradient>
<linearGradient id="paint2_linear_1_473" x1="2.36261" y1="27.7955" x2="12.5534" y2="68.7066" gradientUnits="userSpaceOnUse">
<stop stop-color="#2E3DB0"/>
<stop offset="1" stop-color="#55C1F2"/>
</linearGradient>
<linearGradient id="paint3_linear_1_473" x1="24.5788" y1="-0.265842" x2="61.0408" y2="7.80816" gradientUnits="userSpaceOnUse">
<stop stop-color="#2354C0"/>
<stop offset="1" stop-color="#A3E9FF"/>
</linearGradient>
<linearGradient id="paint4_linear_1_473" x1="-4.57064" y1="8.64272" x2="26.2675" y2="7.22545" gradientUnits="userSpaceOnUse">
<stop offset="0.0203454" stop-color="#2A67C4"/>
<stop offset="0.349209" stop-color="#2E3AB0"/>
<stop offset="1" stop-color="#79E8FF"/>
</linearGradient>
<linearGradient id="paint5_linear_1_473" x1="29.8808" y1="14.5442" x2="29.8672" y2="43.1627" gradientUnits="userSpaceOnUse">
<stop stop-color="#D7F8FF"/>
<stop offset="0.176669" stop-color="#9EEDFF"/>
<stop offset="0.432173" stop-color="#66E3FF"/>
<stop offset="0.685688" stop-color="white" stop-opacity="0"/>
</linearGradient>
<linearGradient id="paint6_linear_1_473" x1="17.6444" y1="16.8896" x2="29.8784" y2="15.0016" gradientUnits="userSpaceOnUse">
<stop stop-color="#D3F6FF"/>
<stop offset="0.603219" stop-color="#D3F6FF"/>
<stop offset="1" stop-color="white"/>
</linearGradient>
</defs>
</svg>
