<svg width="18" height="18" viewBox="0 0 18 18" fill="none" xmlns="http://www.w3.org/2000/svg">
<path fill-rule="evenodd" clip-rule="evenodd" d="M4.25245 16.9725H0.607446V6.52497H4.25245V16.9725ZM11.8199 9.92997C10.9335 9.92997 10.2149 10.6486 10.2149 11.535V16.9725H6.38245V6.52497H10.2149V7.71747C11.1132 6.95701 12.2481 6.53276 13.4249 6.51747C15.8024 6.51747 17.4524 8.27997 17.4524 11.625V16.9725H13.4249V11.535C13.4269 11.108 13.2587 10.6978 12.9575 10.3952C12.6563 10.0926 12.2469 9.92247 11.8199 9.92247V9.92997ZM4.31995 2.90997C4.31995 3.94551 3.48048 4.78497 2.44495 4.78497C1.40941 4.78497 0.569946 3.94551 0.569946 2.90997C0.569946 1.87444 1.40941 1.03497 2.44495 1.03497C3.47462 1.04321 4.30498 1.88027 4.30495 2.90997H4.31995Z" fill="white"/>
</svg>
