<svg width="18" height="18" viewBox="0 0 18 18" fill="none" xmlns="http://www.w3.org/2000/svg">
<path fill-rule="evenodd" clip-rule="evenodd" d="M6.55505 0.5625C3.24135 0.5625 0.555054 3.24879 0.555054 6.5625V11.4375C0.555054 14.7512 3.24135 17.4375 6.55505 17.4375H11.4301C14.7438 17.4375 17.4301 14.7512 17.4301 11.4375V6.5625C17.4301 3.24879 14.7438 0.5625 11.4301 0.5625H6.55505ZM14.1301 4.98755C14.7514 4.98755 15.2551 4.48387 15.2551 3.86255C15.2551 3.24123 14.7514 2.73755 14.1301 2.73755C13.5087 2.73755 13.0051 3.24123 13.0051 3.86255C13.0051 4.48387 13.5087 4.98755 14.1301 4.98755ZM8.99255 4.5C6.50727 4.5 4.49255 6.51472 4.49255 9C4.49255 11.4853 6.50727 13.5 8.99255 13.5C11.4778 13.5 13.4926 11.4853 13.4926 9C13.4926 6.51472 11.4778 4.5 8.99255 4.5ZM5.99255 9C5.99255 7.34315 7.3357 6 8.99255 6C10.6494 6 11.9926 7.34315 11.9926 9C11.9926 10.6569 10.6494 12 8.99255 12C7.3357 12 5.99255 10.6569 5.99255 9Z" fill="white"/>
</svg>
