<svg width="18" height="15" viewBox="0 0 18 15" fill="none" xmlns="http://www.w3.org/2000/svg">
<path fill-rule="evenodd" clip-rule="evenodd" d="M18 2.9396L16.3087 2.21477L17.1946 0.281879L15.1329 0.966443C14.4762 0.354305 13.6145 0.00961967 12.7168 0C10.717 0.0044291 9.09705 1.62443 9.09262 3.62416V4.42953C6.24161 5.01745 3.75302 3.46309 1.44161 0.805369C1.03893 2.95302 1.44161 4.56376 2.64966 5.63758L0 5.2349C0.211268 6.99542 1.65274 8.3521 3.42282 8.45638L1.20805 9.26175C2.01342 10.8725 3.47919 11.1221 5.43624 11.2752C3.83663 12.3662 1.93576 12.9294 0 12.8859C10.2765 17.4523 16.3087 10.7436 16.3087 4.83221V4.16376L18 2.9396Z" fill="white"/>
</svg>
