<svg width="18" height="18" viewBox="0 0 18 18" fill="none" xmlns="http://www.w3.org/2000/svg">
<path fill-rule="evenodd" clip-rule="evenodd" d="M16.2119 0.131205C16.3381 0.0522777 16.4791 0.00863332 16.6217 0L8.05851 11.2759H1.4264C1.03707 11.2759 0.694832 11.018 0.58749 10.6437C0.480148 10.2695 0.633666 9.86942 0.9638 9.66305L16.2117 0.131336L16.2119 0.131205ZM8.93333 11.7774L17.4764 0.527965C17.543 0.683977 17.5641 0.859275 17.5311 1.03302L17.5309 1.03404L14.5611 16.8509C14.4971 17.1909 14.2383 17.4609 13.9014 17.5394C13.5645 17.6179 13.2131 17.49 13.0054 17.2134L8.93333 11.7774ZM6.74511 16.0418V12.2759H8.05726L10.2983 15.2697L8.10844 16.7622L8.10832 16.7623C7.84129 16.9444 7.49542 16.9638 7.20965 16.8128C6.92388 16.6618 6.74509 16.3651 6.74511 16.0419V16.0418Z" fill="white"/>
</svg>
